<svg xmlns="http://www.w3.org/2000/svg" xmlns:xlink="http://www.w3.org/1999/xlink" version="1.1" x="0px" y="0px" viewBox="0 0 491.5 614.375" style="enable-background:new 0 0 491.5 491.5;" xml:space="preserve"><style type="text/css">
	.st0{fill-rule:evenodd;clip-rule:evenodd;}
</style><g><path d="M69.2,352.3l138-138c5.1-5.1,11.9-7.7,18.8-7.7v0c6.8,0,13.6,2.6,18.8,7.7l23.5,23.5c5.2,5.2,7.7,12,7.7,18.8   c0,6.8-2.6,13.6-7.7,18.8l-5.5,5.5l0,0c-1.4,1.4-3.2,2.2-5.1,2.2c-3.5,0.4-7,1.4-10.2,3c-3.2,1.5-6.3,3.7-9,6.4   c-2.8,2.8-4.9,5.8-6.4,9c-1.6,3.4-2.6,7-3,10.7l-7.6-0.8l7.6,0.8c-0.2,1.9-1,3.5-2.3,4.7l-9.2,9.2l0,0c-1.4,1.4-3.2,2.2-5.1,2.2   c-3.5,0.4-7,1.4-10.2,3c-3.2,1.5-6.3,3.7-9,6.4c-2.8,2.8-4.9,5.8-6.4,9c-1.6,3.4-2.6,7-3,10.7l-7.6-0.8l7.6,0.8   c-0.2,1.9-1,3.5-2.3,4.7l-11.9,11.9l0,0c-1.4,1.4-3.2,2.2-5.1,2.2c-3.5,0.4-7,1.4-10.2,3c-3.2,1.5-6.3,3.7-9,6.4   c-2.8,2.8-4.9,5.8-6.4,9c-1.6,3.4-2.6,7-3,10.7l-7.6-0.8l7.6,0.8c-0.2,1.9-1,3.5-2.3,4.7l-3.4,3.4c-5.2,5.2-12,7.7-18.8,7.7   c-6.8,0-13.6-2.6-18.8-7.7l-23.5-23.5c-5.2-5.2-7.7-12-7.7-18.8h0C61.5,364.2,64,357.4,69.2,352.3L69.2,352.3z M218.1,225.1   l-138,138c-2.2,2.2-3.3,5-3.3,7.9h0c0,2.9,1.1,5.7,3.2,7.9l23.5,23.5c2.2,2.2,5,3.2,7.9,3.2c2.9,0,5.7-1.1,7.9-3.2l1.7-1.7   c0.7-4.4,2.1-8.7,4.1-12.8c2.3-4.8,5.4-9.4,9.4-13.3c3.9-3.9,8.4-7.1,13.3-9.4c4.1-2,8.4-3.3,12.8-4.1l8.3-8.3   c0.7-4.4,2.1-8.7,4.1-12.8c2.3-4.8,5.4-9.4,9.4-13.3c3.9-3.9,8.4-7.1,13.3-9.4c4.1-2,8.4-3.3,12.8-4.1l5.7-5.7   c0.7-4.4,2.1-8.7,4.1-12.8c2.3-4.8,5.4-9.4,9.4-13.3c3.9-3.9,8.4-7.1,13.3-9.4c4.1-2,8.4-3.3,12.8-4.1l3.7-3.7   c2.2-2.2,3.2-5,3.2-7.9c0-2.9-1.1-5.7-3.2-7.9l-23.5-23.5c-2.2-2.2-5-3.2-7.9-3.2v0C223.1,221.8,220.2,222.9,218.1,225.1   L218.1,225.1z"/><path d="M233.2,210.7c18.7-12.8,50-52.5,70.6-78.7c5.5-7,10.3-13,13.7-17.2l5.9,4.9l-5.9-4.9c1-1.2,2.2-2,3.6-2.4   c15.5-6.2,27.6-9.2,38.6-11.9c19.1-4.7,34.3-8.5,57.7-28.1l4.9,5.9l-4.9-5.9c3.2-2.7,8.1-2.3,10.8,0.9c1.9,2.3,2.3,5.4,1.2,8   c-5.2,14.1-23.3,38.6-48.8,65c-21.9,22.8-49.4,47.3-78.9,68.1c-3,2.1-6.2,4.1-9.4,6c-9.6,5.9-18.4,11.4-22.3,24.8l-7.3-2.1l7.4,2.1   c-1.2,4.1-5.4,6.4-9.5,5.2c-1.3-0.4-2.5-1.1-3.4-2.1l-25.6-25.6l0,0c-3-3-3-7.9,0-10.9C232.1,211.5,232.6,211.1,233.2,210.7   L233.2,210.7z M315.9,141.5c-19,24.1-46.9,59.4-67.3,76.6l11.5,11.5c6.1-10.9,14.9-16.4,24.3-22.1c2.8-1.7,5.6-3.4,8.6-5.6   c28.6-20.2,55.3-44.1,76.6-66.2c10.8-11.2,20.1-21.9,27.6-31.4c-11.5,5.6-21.9,8.2-33.7,11.1c-10.2,2.5-21.4,5.3-35.3,10.7   C324.7,130.3,320.6,135.6,315.9,141.5L315.9,141.5z"/><ellipse transform="matrix(0.9239 -0.3827 0.3827 0.9239 -79.8827 106.6998)" class="st0" cx="228.3" cy="254.1" rx="10.1" ry="10.1"/></g><text x="0" y="506.5" fill="#000000" font-size="5px" font-weight="bold" font-family="'Helvetica Neue', Helvetica, Arial-Unicode, Arial, Sans-serif">Created by Tooora khan</text><text x="0" y="511.5" fill="#000000" font-size="5px" font-weight="bold" font-family="'Helvetica Neue', Helvetica, Arial-Unicode, Arial, Sans-serif">from the Noun Project</text></svg>